<svg id="line" height="512" viewBox="0 0 64 64" width="512" xmlns="http://www.w3.org/2000/svg"><path d="m12.91 52.33-1.91 9.47a1 1 0 0 0 1.2 1.2l9.47-1.89z" fill="#c4a2fc"/><path d="m60.71 21.29-8-8a1 1 0 0 0 -1.42 0l-37.29 37.3 9.41 9.41 37.3-37.29a1 1 0 0 0 0-1.42z" fill="#c4a2fc"/><g fill="#151a6a"><path d="m31 11h-22a1 1 0 0 0 -1 1v30a1 1 0 0 0 1 1h22a1 1 0 0 0 1-1v-30a1 1 0 0 0 -1-1zm-1 30h-20v-28h20z"/><path d="m34 4h-5a3 3 0 0 0 -3-3h-12a3 3 0 0 0 -3 3h-5a3 3 0 0 0 -3 3v38a3 3 0 0 0 3 3h28a3 3 0 0 0 3-3v-38a3 3 0 0 0 -3-3zm-21 0a1 1 0 0 1 1-1h12a1 1 0 0 1 1 1v2h-14zm22 41a1 1 0 0 1 -1 1h-28a1 1 0 0 1 -1-1v-38a1 1 0 0 1 1-1h5v1a1 1 0 0 0 1 1h16a1 1 0 0 0 1-1v-1h5a1 1 0 0 1 1 1z"/><path d="m14 18h12a1 1 0 0 0 0-2h-12a1 1 0 0 0 0 2z"/><path d="m14 23h12a1 1 0 0 0 0-2h-12a1 1 0 0 0 0 2z"/><path d="m14 28h12a1 1 0 0 0 0-2h-12a1 1 0 0 0 0 2z"/><path d="m14 33h12a1 1 0 0 0 0-2h-12a1 1 0 0 0 0 2z"/><path d="m14 38h6a1 1 0 0 0 0-2h-6a1 1 0 0 0 0 2z"/></g></svg>